<svg xmlns="http://www.w3.org/2000/svg" viewBox="0 0 64 64" role="img" aria-label="Baseball">
  <circle cx="32" cy="32" r="30" fill="#fbfcff"/>
  <circle cx="32" cy="32" r="30" fill="none" stroke="#d7e4fb" stroke-width="2"/>
  <path d="M18 11c6 7 9 15 9 21s-3 14-9 21" fill="none" stroke="#c63845" stroke-width="3.2" stroke-linecap="round"/>
  <path d="M46 11c-6 7-9 15-9 21s3 14 9 21" fill="none" stroke="#c63845" stroke-width="3.2" stroke-linecap="round"/>
  <path d="M20.5 17.5l4 3.2m-5.2 2.2 5 3.9m-5.8 3.1 5.7 4.2m-5.2 2.1 5 3.9m-4 1.4 4 3.2" fill="none" stroke="#c63845" stroke-width="1.9" stroke-linecap="round"/>
  <path d="M43.5 17.5l-4 3.2m5.2 2.2-5 3.9m5.8 3.1-5.7 4.2m5.2 2.1-5 3.9m4 1.4-4 3.2" fill="none" stroke="#c63845" stroke-width="1.9" stroke-linecap="round"/>
</svg>
