<svg xmlns="http://www.w3.org/2000/svg" width="1158" height="871" style="background:#f9fafb; font-family: Arial, Helvetica, sans-serif;">
  <defs>
    <marker id="arr" markerWidth="7" markerHeight="7" refX="6.5" refY="3.5" orient="auto">
      <path d="M0,0.5 L0,6.5 L7,3.5 z" fill="#9ca3af"/>
    </marker>
  </defs>
  <text x="579" y="26" fill="#111827" font-size="13.5" font-weight="bold" text-anchor="middle">Lahman Baseball Database — Original Data Model (20 tables)</text>
  <line x1="217.0" y1="109.0" x2="252.0" y2="109.0" stroke="#9ca3af" stroke-width="1.25" fill="none" marker-end="url(#arr)"/>
  <rect x="211.5" y="101.0" width="46.0" height="13" rx="2" fill="#f9fafb" stroke="#e5e7eb" stroke-width="0.7"/>
  <text x="234.5" y="111.0" fill="#6b7280" font-size="8" text-anchor="middle">franchID</text>
  <line x1="435.0" y1="109.0" x2="470.0" y2="109.0" stroke="#9ca3af" stroke-width="1.25" fill="none" marker-end="url(#arr)"/>
  <rect x="414.5" y="101.0" width="76.0" height="13" rx="2" fill="#f9fafb" stroke="#e5e7eb" stroke-width="0.7"/>
  <text x="452.5" y="111.0" fill="#6b7280" font-size="8" text-anchor="middle">teamID, yearID</text>
  <polyline points="403.2,48.0 403.2,38.0 719.8,38.0 719.8,48.0" stroke="#9ca3af" stroke-width="1.25" fill="none" marker-end="url(#arr)"/>
  <rect x="543.5" y="30.0" width="36.0" height="13" rx="2" fill="#f9fafb" stroke="#e5e7eb" stroke-width="0.7"/>
  <text x="561.5" y="40.0" fill="#6b7280" font-size="8" text-anchor="middle">teamID</text>
  <line x1="498.7" y1="358.0" x2="180.4" y2="325.0" stroke="#9ca3af" stroke-width="1.25" fill="none" marker-end="url(#arr)"/>
  <line x1="530.1" y1="358.0" x2="378.0" y2="325.0" stroke="#9ca3af" stroke-width="1.25" fill="none" marker-end="url(#arr)"/>
  <line x1="592.9" y1="358.0" x2="745.0" y2="325.0" stroke="#9ca3af" stroke-width="1.25" fill="none" marker-end="url(#arr)"/>
  <line x1="624.3" y1="358.0" x2="942.5" y2="325.0" stroke="#9ca3af" stroke-width="1.25" fill="none" marker-end="url(#arr)"/>
  <line x1="470.0" y1="401.7" x2="435.0" y2="419.0" stroke="#9ca3af" stroke-width="1.25" fill="none" marker-end="url(#arr)"/>
  <line x1="470.0" y1="436.3" x2="217.0" y2="419.0" stroke="#9ca3af" stroke-width="1.25" fill="none" marker-end="url(#arr)"/>
  <line x1="653.0" y1="401.7" x2="688.0" y2="419.0" stroke="#9ca3af" stroke-width="1.25" fill="none" marker-end="url(#arr)"/>
  <line x1="653.0" y1="436.3" x2="906.0" y2="419.0" stroke="#9ca3af" stroke-width="1.25" fill="none" marker-end="url(#arr)"/>
  <line x1="495.6" y1="480.0" x2="125.5" y2="513.0" stroke="#9ca3af" stroke-width="1.25" fill="none" marker-end="url(#arr)"/>
  <line x1="522.2" y1="480.0" x2="367.1" y2="513.0" stroke="#9ca3af" stroke-width="1.25" fill="none" marker-end="url(#arr)"/>
  <line x1="548.9" y1="480.0" x2="561.5" y2="513.0" stroke="#9ca3af" stroke-width="1.25" fill="none" marker-end="url(#arr)"/>
  <line x1="589.8" y1="480.0" x2="756.0" y2="513.0" stroke="#9ca3af" stroke-width="1.25" fill="none" marker-end="url(#arr)"/>
  <line x1="616.5" y1="480.0" x2="997.5" y2="513.0" stroke="#9ca3af" stroke-width="1.25" fill="none" marker-end="url(#arr)"/>
  <line x1="343.5" y1="635.0" x2="343.5" y2="668.0" stroke="#9ca3af" stroke-width="1.25" fill="none" marker-end="url(#arr)"/>
  <line x1="561.5" y1="635.0" x2="561.5" y2="668.0" stroke="#9ca3af" stroke-width="1.25" fill="none" marker-end="url(#arr)"/>
  <rect x="36" y="50" width="183" height="122" rx="5" fill="#00000010"/>
  <rect x="34" y="48" width="183" height="122" rx="5" fill="#ffffff" stroke="#d1d5db" stroke-width="1.1"/>
  <rect x="34" y="48" width="183" height="22" rx="5" fill="#dbeafe"/>
  <rect x="34" y="65" width="183" height="5" fill="#dbeafe"/>
  <line x1="34" y1="70" x2="217" y2="70" stroke="#d1d5db" stroke-width="1"/>
  <text x="125" y="63" fill="#1e40af" font-size="10.5" font-weight="bold" text-anchor="middle">TeamsFranchises</text>
  <text x="42" y="82" fill="#111827" font-size="9" font-weight="bold">franchID (PK)</text>
  <line x1="41" y1="85" x2="210" y2="85" stroke="#e5e7eb" stroke-width="0.5"/>
  <text x="42" y="96" fill="#111827" font-size="9" font-weight="normal">franchName</text>
  <line x1="41" y1="99" x2="210" y2="99" stroke="#e5e7eb" stroke-width="0.5"/>
  <text x="42" y="110" fill="#111827" font-size="9" font-weight="normal">active</text>
  <rect x="254" y="50" width="183" height="122" rx="5" fill="#00000010"/>
  <rect x="252" y="48" width="183" height="122" rx="5" fill="#ffffff" stroke="#d1d5db" stroke-width="1.1"/>
  <rect x="252" y="48" width="183" height="22" rx="5" fill="#e0e7ff"/>
  <rect x="252" y="65" width="183" height="5" fill="#e0e7ff"/>
  <line x1="252" y1="70" x2="435" y2="70" stroke="#d1d5db" stroke-width="1"/>
  <text x="343" y="63" fill="#3730a3" font-size="10.5" font-weight="bold" text-anchor="middle">Teams</text>
  <text x="260" y="82" fill="#111827" font-size="9" font-weight="bold">teamID, yearID (PK)</text>
  <line x1="259" y1="85" x2="428" y2="85" stroke="#e5e7eb" stroke-width="0.5"/>
  <text x="260" y="96" fill="#111827" font-size="9" font-weight="bold">franchID (FK)</text>
  <line x1="259" y1="99" x2="428" y2="99" stroke="#e5e7eb" stroke-width="0.5"/>
  <text x="260" y="110" fill="#111827" font-size="9" font-weight="normal">lgID, divID, name</text>
  <line x1="259" y1="113" x2="428" y2="113" stroke="#e5e7eb" stroke-width="0.5"/>
  <text x="260" y="124" fill="#111827" font-size="9" font-weight="normal">W / L / G / Rank</text>
  <line x1="259" y1="127" x2="428" y2="127" stroke="#e5e7eb" stroke-width="0.5"/>
  <text x="260" y="138" fill="#111827" font-size="9" font-weight="normal">ERA, park, attendance…</text>
  <rect x="472" y="50" width="183" height="122" rx="5" fill="#00000010"/>
  <rect x="470" y="48" width="183" height="122" rx="5" fill="#ffffff" stroke="#d1d5db" stroke-width="1.1"/>
  <rect x="470" y="48" width="183" height="22" rx="5" fill="#e0e7ff"/>
  <rect x="470" y="65" width="183" height="5" fill="#e0e7ff"/>
  <line x1="470" y1="70" x2="653" y2="70" stroke="#d1d5db" stroke-width="1"/>
  <text x="561" y="63" fill="#3730a3" font-size="10.5" font-weight="bold" text-anchor="middle">TeamsHalf</text>
  <text x="478" y="82" fill="#111827" font-size="9" font-weight="bold">teamID (FK)</text>
  <line x1="477" y1="85" x2="646" y2="85" stroke="#e5e7eb" stroke-width="0.5"/>
  <text x="478" y="96" fill="#111827" font-size="9" font-weight="normal">yearID, Half</text>
  <line x1="477" y1="99" x2="646" y2="99" stroke="#e5e7eb" stroke-width="0.5"/>
  <text x="478" y="110" fill="#111827" font-size="9" font-weight="normal">divID, DivWin</text>
  <line x1="477" y1="113" x2="646" y2="113" stroke="#e5e7eb" stroke-width="0.5"/>
  <text x="478" y="124" fill="#111827" font-size="9" font-weight="normal">W / L / Rank</text>
  <rect x="690" y="50" width="183" height="122" rx="5" fill="#00000010"/>
  <rect x="688" y="48" width="183" height="122" rx="5" fill="#ffffff" stroke="#d1d5db" stroke-width="1.1"/>
  <rect x="688" y="48" width="183" height="22" rx="5" fill="#f3e8ff"/>
  <rect x="688" y="65" width="183" height="5" fill="#f3e8ff"/>
  <line x1="688" y1="70" x2="871" y2="70" stroke="#d1d5db" stroke-width="1"/>
  <text x="779" y="63" fill="#6b21a8" font-size="10.5" font-weight="bold" text-anchor="middle">SeriesPost</text>
  <text x="696" y="82" fill="#111827" font-size="9" font-weight="normal">yearID, round</text>
  <line x1="695" y1="85" x2="864" y2="85" stroke="#e5e7eb" stroke-width="0.5"/>
  <text x="696" y="96" fill="#111827" font-size="9" font-weight="bold">teamIDwinner (FK)</text>
  <line x1="695" y1="99" x2="864" y2="99" stroke="#e5e7eb" stroke-width="0.5"/>
  <text x="696" y="110" fill="#111827" font-size="9" font-weight="bold">teamIDloser (FK)</text>
  <line x1="695" y1="113" x2="864" y2="113" stroke="#e5e7eb" stroke-width="0.5"/>
  <text x="696" y="124" fill="#111827" font-size="9" font-weight="normal">wins / losses / ties</text>
  <rect x="36" y="205" width="183" height="122" rx="5" fill="#00000010"/>
  <rect x="34" y="203" width="183" height="122" rx="5" fill="#ffffff" stroke="#d1d5db" stroke-width="1.1"/>
  <rect x="34" y="203" width="183" height="22" rx="5" fill="#dcfce7"/>
  <rect x="34" y="220" width="183" height="5" fill="#dcfce7"/>
  <line x1="34" y1="225" x2="217" y2="225" stroke="#d1d5db" stroke-width="1"/>
  <text x="125" y="218" fill="#166534" font-size="10.5" font-weight="bold" text-anchor="middle">Batting</text>
  <text x="42" y="237" fill="#111827" font-size="9" font-weight="bold">playerID (FK)</text>
  <line x1="41" y1="240" x2="210" y2="240" stroke="#e5e7eb" stroke-width="0.5"/>
  <text x="42" y="251" fill="#111827" font-size="9" font-weight="normal">yearID, stint</text>
  <line x1="41" y1="254" x2="210" y2="254" stroke="#e5e7eb" stroke-width="0.5"/>
  <text x="42" y="265" fill="#111827" font-size="9" font-weight="bold">teamID (FK), lgID</text>
  <line x1="41" y1="268" x2="210" y2="268" stroke="#e5e7eb" stroke-width="0.5"/>
  <text x="42" y="279" fill="#111827" font-size="9" font-weight="normal">AB / H / HR / RBI</text>
  <line x1="41" y1="282" x2="210" y2="282" stroke="#e5e7eb" stroke-width="0.5"/>
  <text x="42" y="293" fill="#111827" font-size="9" font-weight="normal">BB / SO / SB…</text>
  <rect x="254" y="205" width="183" height="122" rx="5" fill="#00000010"/>
  <rect x="252" y="203" width="183" height="122" rx="5" fill="#ffffff" stroke="#d1d5db" stroke-width="1.1"/>
  <rect x="252" y="203" width="183" height="22" rx="5" fill="#dcfce7"/>
  <rect x="252" y="220" width="183" height="5" fill="#dcfce7"/>
  <line x1="252" y1="225" x2="435" y2="225" stroke="#d1d5db" stroke-width="1"/>
  <text x="343" y="218" fill="#166534" font-size="10.5" font-weight="bold" text-anchor="middle">BattingPost</text>
  <text x="260" y="237" fill="#111827" font-size="9" font-weight="bold">playerID (FK)</text>
  <line x1="259" y1="240" x2="428" y2="240" stroke="#e5e7eb" stroke-width="0.5"/>
  <text x="260" y="251" fill="#111827" font-size="9" font-weight="normal">yearID, round</text>
  <line x1="259" y1="254" x2="428" y2="254" stroke="#e5e7eb" stroke-width="0.5"/>
  <text x="260" y="265" fill="#111827" font-size="9" font-weight="bold">teamID (FK)</text>
  <line x1="259" y1="268" x2="428" y2="268" stroke="#e5e7eb" stroke-width="0.5"/>
  <text x="260" y="279" fill="#111827" font-size="9" font-weight="normal">AB / H / HR / RBI</text>
  <rect x="690" y="205" width="183" height="122" rx="5" fill="#00000010"/>
  <rect x="688" y="203" width="183" height="122" rx="5" fill="#ffffff" stroke="#d1d5db" stroke-width="1.1"/>
  <rect x="688" y="203" width="183" height="22" rx="5" fill="#dcfce7"/>
  <rect x="688" y="220" width="183" height="5" fill="#dcfce7"/>
  <line x1="688" y1="225" x2="871" y2="225" stroke="#d1d5db" stroke-width="1"/>
  <text x="779" y="218" fill="#166534" font-size="10.5" font-weight="bold" text-anchor="middle">Pitching</text>
  <text x="696" y="237" fill="#111827" font-size="9" font-weight="bold">playerID (FK)</text>
  <line x1="695" y1="240" x2="864" y2="240" stroke="#e5e7eb" stroke-width="0.5"/>
  <text x="696" y="251" fill="#111827" font-size="9" font-weight="normal">yearID, stint</text>
  <line x1="695" y1="254" x2="864" y2="254" stroke="#e5e7eb" stroke-width="0.5"/>
  <text x="696" y="265" fill="#111827" font-size="9" font-weight="bold">teamID (FK)</text>
  <line x1="695" y1="268" x2="864" y2="268" stroke="#e5e7eb" stroke-width="0.5"/>
  <text x="696" y="279" fill="#111827" font-size="9" font-weight="normal">W / L / ERA / SO</text>
  <line x1="695" y1="282" x2="864" y2="282" stroke="#e5e7eb" stroke-width="0.5"/>
  <text x="696" y="293" fill="#111827" font-size="9" font-weight="normal">SV / CG / BFP…</text>
  <rect x="908" y="205" width="183" height="122" rx="5" fill="#00000010"/>
  <rect x="906" y="203" width="183" height="122" rx="5" fill="#ffffff" stroke="#d1d5db" stroke-width="1.1"/>
  <rect x="906" y="203" width="183" height="22" rx="5" fill="#dcfce7"/>
  <rect x="906" y="220" width="183" height="5" fill="#dcfce7"/>
  <line x1="906" y1="225" x2="1089" y2="225" stroke="#d1d5db" stroke-width="1"/>
  <text x="997" y="218" fill="#166534" font-size="10.5" font-weight="bold" text-anchor="middle">PitchingPost</text>
  <text x="914" y="237" fill="#111827" font-size="9" font-weight="bold">playerID (FK)</text>
  <line x1="913" y1="240" x2="1082" y2="240" stroke="#e5e7eb" stroke-width="0.5"/>
  <text x="914" y="251" fill="#111827" font-size="9" font-weight="normal">yearID, round</text>
  <line x1="913" y1="254" x2="1082" y2="254" stroke="#e5e7eb" stroke-width="0.5"/>
  <text x="914" y="265" fill="#111827" font-size="9" font-weight="bold">teamID (FK)</text>
  <line x1="913" y1="268" x2="1082" y2="268" stroke="#e5e7eb" stroke-width="0.5"/>
  <text x="914" y="279" fill="#111827" font-size="9" font-weight="normal">W / L / ERA / SO</text>
  <rect x="36" y="360" width="183" height="122" rx="5" fill="#00000010"/>
  <rect x="34" y="358" width="183" height="122" rx="5" fill="#ffffff" stroke="#d1d5db" stroke-width="1.1"/>
  <rect x="34" y="358" width="183" height="22" rx="5" fill="#dcfce7"/>
  <rect x="34" y="375" width="183" height="5" fill="#dcfce7"/>
  <line x1="34" y1="380" x2="217" y2="380" stroke="#d1d5db" stroke-width="1"/>
  <text x="125" y="373" fill="#166534" font-size="10.5" font-weight="bold" text-anchor="middle">Fielding</text>
  <text x="42" y="392" fill="#111827" font-size="9" font-weight="bold">playerID (FK)</text>
  <line x1="41" y1="395" x2="210" y2="395" stroke="#e5e7eb" stroke-width="0.5"/>
  <text x="42" y="406" fill="#111827" font-size="9" font-weight="normal">yearID, stint</text>
  <line x1="41" y1="409" x2="210" y2="409" stroke="#e5e7eb" stroke-width="0.5"/>
  <text x="42" y="420" fill="#111827" font-size="9" font-weight="bold">teamID (FK), POS</text>
  <line x1="41" y1="423" x2="210" y2="423" stroke="#e5e7eb" stroke-width="0.5"/>
  <text x="42" y="434" fill="#111827" font-size="9" font-weight="normal">E / A / PO / DP</text>
  <rect x="254" y="360" width="183" height="122" rx="5" fill="#00000010"/>
  <rect x="252" y="358" width="183" height="122" rx="5" fill="#ffffff" stroke="#d1d5db" stroke-width="1.1"/>
  <rect x="252" y="358" width="183" height="22" rx="5" fill="#dcfce7"/>
  <rect x="252" y="375" width="183" height="5" fill="#dcfce7"/>
  <line x1="252" y1="380" x2="435" y2="380" stroke="#d1d5db" stroke-width="1"/>
  <text x="343" y="373" fill="#166534" font-size="10.5" font-weight="bold" text-anchor="middle">FieldingOF</text>
  <text x="260" y="392" fill="#111827" font-size="9" font-weight="bold">playerID (FK)</text>
  <line x1="259" y1="395" x2="428" y2="395" stroke="#e5e7eb" stroke-width="0.5"/>
  <text x="260" y="406" fill="#111827" font-size="9" font-weight="normal">yearID, stint</text>
  <line x1="259" y1="409" x2="428" y2="409" stroke="#e5e7eb" stroke-width="0.5"/>
  <text x="260" y="420" fill="#111827" font-size="9" font-weight="normal">Glf / Gcf / Grf</text>
  <rect x="472" y="360" width="183" height="122" rx="5" fill="#00000010"/>
  <rect x="470" y="358" width="183" height="122" rx="5" fill="#ffffff" stroke="#d1d5db" stroke-width="1.1"/>
  <rect x="470" y="358" width="183" height="22" rx="5" fill="#fee2e2"/>
  <rect x="470" y="375" width="183" height="5" fill="#fee2e2"/>
  <line x1="470" y1="380" x2="653" y2="380" stroke="#d1d5db" stroke-width="1"/>
  <text x="561" y="373" fill="#991b1b" font-size="10.5" font-weight="bold" text-anchor="middle">Player</text>
  <text x="478" y="392" fill="#111827" font-size="9" font-weight="bold">playerID (PK)</text>
  <line x1="477" y1="395" x2="646" y2="395" stroke="#e5e7eb" stroke-width="0.5"/>
  <text x="478" y="406" fill="#111827" font-size="9" font-weight="normal">nameFirst, nameLast</text>
  <line x1="477" y1="409" x2="646" y2="409" stroke="#e5e7eb" stroke-width="0.5"/>
  <text x="478" y="420" fill="#111827" font-size="9" font-weight="normal">birthYear, birthCountry</text>
  <line x1="477" y1="423" x2="646" y2="423" stroke="#e5e7eb" stroke-width="0.5"/>
  <text x="478" y="434" fill="#111827" font-size="9" font-weight="normal">bats, throws</text>
  <line x1="477" y1="437" x2="646" y2="437" stroke="#e5e7eb" stroke-width="0.5"/>
  <text x="478" y="448" fill="#111827" font-size="9" font-weight="normal">debut, finalGame</text>
  <rect x="690" y="360" width="183" height="122" rx="5" fill="#00000010"/>
  <rect x="688" y="358" width="183" height="122" rx="5" fill="#ffffff" stroke="#d1d5db" stroke-width="1.1"/>
  <rect x="688" y="358" width="183" height="22" rx="5" fill="#dcfce7"/>
  <rect x="688" y="375" width="183" height="5" fill="#dcfce7"/>
  <line x1="688" y1="380" x2="871" y2="380" stroke="#d1d5db" stroke-width="1"/>
  <text x="779" y="373" fill="#166534" font-size="10.5" font-weight="bold" text-anchor="middle">Salaries</text>
  <text x="696" y="392" fill="#111827" font-size="9" font-weight="bold">playerID (FK)</text>
  <line x1="695" y1="395" x2="864" y2="395" stroke="#e5e7eb" stroke-width="0.5"/>
  <text x="696" y="406" fill="#111827" font-size="9" font-weight="normal">yearID</text>
  <line x1="695" y1="409" x2="864" y2="409" stroke="#e5e7eb" stroke-width="0.5"/>
  <text x="696" y="420" fill="#111827" font-size="9" font-weight="bold">teamID (FK), lgID</text>
  <line x1="695" y1="423" x2="864" y2="423" stroke="#e5e7eb" stroke-width="0.5"/>
  <text x="696" y="434" fill="#111827" font-size="9" font-weight="normal">salary</text>
  <rect x="908" y="360" width="183" height="122" rx="5" fill="#00000010"/>
  <rect x="906" y="358" width="183" height="122" rx="5" fill="#ffffff" stroke="#d1d5db" stroke-width="1.1"/>
  <rect x="906" y="358" width="183" height="22" rx="5" fill="#dcfce7"/>
  <rect x="906" y="375" width="183" height="5" fill="#dcfce7"/>
  <line x1="906" y1="380" x2="1089" y2="380" stroke="#d1d5db" stroke-width="1"/>
  <text x="997" y="373" fill="#166534" font-size="10.5" font-weight="bold" text-anchor="middle">AllstarFull</text>
  <text x="914" y="392" fill="#111827" font-size="9" font-weight="bold">playerID (FK)</text>
  <line x1="913" y1="395" x2="1082" y2="395" stroke="#e5e7eb" stroke-width="0.5"/>
  <text x="914" y="406" fill="#111827" font-size="9" font-weight="normal">yearID</text>
  <line x1="913" y1="409" x2="1082" y2="409" stroke="#e5e7eb" stroke-width="0.5"/>
  <text x="914" y="420" fill="#111827" font-size="9" font-weight="bold">teamID (FK), gameID</text>
  <line x1="913" y1="423" x2="1082" y2="423" stroke="#e5e7eb" stroke-width="0.5"/>
  <text x="914" y="434" fill="#111827" font-size="9" font-weight="normal">GP, startingPos</text>
  <rect x="36" y="515" width="183" height="122" rx="5" fill="#00000010"/>
  <rect x="34" y="513" width="183" height="122" rx="5" fill="#ffffff" stroke="#d1d5db" stroke-width="1.1"/>
  <rect x="34" y="513" width="183" height="22" rx="5" fill="#fef9c3"/>
  <rect x="34" y="530" width="183" height="5" fill="#fef9c3"/>
  <line x1="34" y1="535" x2="217" y2="535" stroke="#d1d5db" stroke-width="1"/>
  <text x="125" y="528" fill="#854d0e" font-size="10.5" font-weight="bold" text-anchor="middle">HallOfFame</text>
  <text x="42" y="547" fill="#111827" font-size="9" font-weight="bold">playerID (FK)</text>
  <line x1="41" y1="550" x2="210" y2="550" stroke="#e5e7eb" stroke-width="0.5"/>
  <text x="42" y="561" fill="#111827" font-size="9" font-weight="normal">yearid</text>
  <line x1="41" y1="564" x2="210" y2="564" stroke="#e5e7eb" stroke-width="0.5"/>
  <text x="42" y="575" fill="#111827" font-size="9" font-weight="normal">inducted</text>
  <line x1="41" y1="578" x2="210" y2="578" stroke="#e5e7eb" stroke-width="0.5"/>
  <text x="42" y="589" fill="#111827" font-size="9" font-weight="normal">votes / ballots</text>
  <line x1="41" y1="592" x2="210" y2="592" stroke="#e5e7eb" stroke-width="0.5"/>
  <text x="42" y="603" fill="#111827" font-size="9" font-weight="normal">category</text>
  <rect x="254" y="515" width="183" height="122" rx="5" fill="#00000010"/>
  <rect x="252" y="513" width="183" height="122" rx="5" fill="#ffffff" stroke="#d1d5db" stroke-width="1.1"/>
  <rect x="252" y="513" width="183" height="22" rx="5" fill="#e0e7ff"/>
  <rect x="252" y="530" width="183" height="5" fill="#e0e7ff"/>
  <line x1="252" y1="535" x2="435" y2="535" stroke="#d1d5db" stroke-width="1"/>
  <text x="343" y="528" fill="#3730a3" font-size="10.5" font-weight="bold" text-anchor="middle">Managers</text>
  <text x="260" y="547" fill="#111827" font-size="9" font-weight="bold">playerID (FK)</text>
  <line x1="259" y1="550" x2="428" y2="550" stroke="#e5e7eb" stroke-width="0.5"/>
  <text x="260" y="561" fill="#111827" font-size="9" font-weight="normal">yearID</text>
  <line x1="259" y1="564" x2="428" y2="564" stroke="#e5e7eb" stroke-width="0.5"/>
  <text x="260" y="575" fill="#111827" font-size="9" font-weight="bold">teamID (FK)</text>
  <line x1="259" y1="578" x2="428" y2="578" stroke="#e5e7eb" stroke-width="0.5"/>
  <text x="260" y="589" fill="#111827" font-size="9" font-weight="normal">W / L / rank</text>
  <line x1="259" y1="592" x2="428" y2="592" stroke="#e5e7eb" stroke-width="0.5"/>
  <text x="260" y="603" fill="#111827" font-size="9" font-weight="normal">plyrMgr</text>
  <rect x="472" y="515" width="183" height="122" rx="5" fill="#00000010"/>
  <rect x="470" y="513" width="183" height="122" rx="5" fill="#ffffff" stroke="#d1d5db" stroke-width="1.1"/>
  <rect x="470" y="513" width="183" height="22" rx="5" fill="#e0e7ff"/>
  <rect x="470" y="530" width="183" height="5" fill="#e0e7ff"/>
  <line x1="470" y1="535" x2="653" y2="535" stroke="#d1d5db" stroke-width="1"/>
  <text x="561" y="528" fill="#3730a3" font-size="10.5" font-weight="bold" text-anchor="middle">ManagersHalf</text>
  <text x="478" y="547" fill="#111827" font-size="9" font-weight="bold">playerID (FK)</text>
  <line x1="477" y1="550" x2="646" y2="550" stroke="#e5e7eb" stroke-width="0.5"/>
  <text x="478" y="561" fill="#111827" font-size="9" font-weight="normal">yearID</text>
  <line x1="477" y1="564" x2="646" y2="564" stroke="#e5e7eb" stroke-width="0.5"/>
  <text x="478" y="575" fill="#111827" font-size="9" font-weight="bold">teamID (FK)</text>
  <line x1="477" y1="578" x2="646" y2="578" stroke="#e5e7eb" stroke-width="0.5"/>
  <text x="478" y="589" fill="#111827" font-size="9" font-weight="normal">half, W / L</text>
  <rect x="690" y="515" width="183" height="122" rx="5" fill="#00000010"/>
  <rect x="688" y="513" width="183" height="122" rx="5" fill="#ffffff" stroke="#d1d5db" stroke-width="1.1"/>
  <rect x="688" y="513" width="183" height="22" rx="5" fill="#fef9c3"/>
  <rect x="688" y="530" width="183" height="5" fill="#fef9c3"/>
  <line x1="688" y1="535" x2="871" y2="535" stroke="#d1d5db" stroke-width="1"/>
  <text x="779" y="528" fill="#854d0e" font-size="10.5" font-weight="bold" text-anchor="middle">AwardsPlayers</text>
  <text x="696" y="547" fill="#111827" font-size="9" font-weight="bold">playerID (FK)</text>
  <line x1="695" y1="550" x2="864" y2="550" stroke="#e5e7eb" stroke-width="0.5"/>
  <text x="696" y="561" fill="#111827" font-size="9" font-weight="normal">awardID</text>
  <line x1="695" y1="564" x2="864" y2="564" stroke="#e5e7eb" stroke-width="0.5"/>
  <text x="696" y="575" fill="#111827" font-size="9" font-weight="normal">yearID, lgID</text>
  <line x1="695" y1="578" x2="864" y2="578" stroke="#e5e7eb" stroke-width="0.5"/>
  <text x="696" y="589" fill="#111827" font-size="9" font-weight="normal">tie, notes</text>
  <rect x="908" y="515" width="183" height="122" rx="5" fill="#00000010"/>
  <rect x="906" y="513" width="183" height="122" rx="5" fill="#ffffff" stroke="#d1d5db" stroke-width="1.1"/>
  <rect x="906" y="513" width="183" height="22" rx="5" fill="#fef9c3"/>
  <rect x="906" y="530" width="183" height="5" fill="#fef9c3"/>
  <line x1="906" y1="535" x2="1089" y2="535" stroke="#d1d5db" stroke-width="1"/>
  <text x="997" y="528" fill="#854d0e" font-size="10.5" font-weight="bold" text-anchor="middle">AwardSharePlayers</text>
  <text x="914" y="547" fill="#111827" font-size="9" font-weight="normal">awardID, yearID, lgID</text>
  <line x1="913" y1="550" x2="1082" y2="550" stroke="#e5e7eb" stroke-width="0.5"/>
  <text x="914" y="561" fill="#111827" font-size="9" font-weight="bold">playerID (FK)</text>
  <line x1="913" y1="564" x2="1082" y2="564" stroke="#e5e7eb" stroke-width="0.5"/>
  <text x="914" y="575" fill="#111827" font-size="9" font-weight="normal">pointsWon / pointsMax</text>
  <rect x="254" y="670" width="183" height="122" rx="5" fill="#00000010"/>
  <rect x="252" y="668" width="183" height="122" rx="5" fill="#ffffff" stroke="#d1d5db" stroke-width="1.1"/>
  <rect x="252" y="668" width="183" height="22" rx="5" fill="#fef9c3"/>
  <rect x="252" y="685" width="183" height="5" fill="#fef9c3"/>
  <line x1="252" y1="690" x2="435" y2="690" stroke="#d1d5db" stroke-width="1"/>
  <text x="343" y="683" fill="#854d0e" font-size="10.5" font-weight="bold" text-anchor="middle">AwardsManagers</text>
  <text x="260" y="702" fill="#111827" font-size="9" font-weight="bold">playerID (FK)</text>
  <line x1="259" y1="705" x2="428" y2="705" stroke="#e5e7eb" stroke-width="0.5"/>
  <text x="260" y="716" fill="#111827" font-size="9" font-weight="normal">awardID</text>
  <line x1="259" y1="719" x2="428" y2="719" stroke="#e5e7eb" stroke-width="0.5"/>
  <text x="260" y="730" fill="#111827" font-size="9" font-weight="normal">yearID, lgID</text>
  <line x1="259" y1="733" x2="428" y2="733" stroke="#e5e7eb" stroke-width="0.5"/>
  <text x="260" y="744" fill="#111827" font-size="9" font-weight="normal">tie</text>
  <rect x="472" y="670" width="183" height="122" rx="5" fill="#00000010"/>
  <rect x="470" y="668" width="183" height="122" rx="5" fill="#ffffff" stroke="#d1d5db" stroke-width="1.1"/>
  <rect x="470" y="668" width="183" height="22" rx="5" fill="#fef9c3"/>
  <rect x="470" y="685" width="183" height="5" fill="#fef9c3"/>
  <line x1="470" y1="690" x2="653" y2="690" stroke="#d1d5db" stroke-width="1"/>
  <text x="561" y="683" fill="#854d0e" font-size="10.5" font-weight="bold" text-anchor="middle">AwardShareManagers</text>
  <text x="478" y="702" fill="#111827" font-size="9" font-weight="normal">awardID, yearID, lgID</text>
  <line x1="477" y1="705" x2="646" y2="705" stroke="#e5e7eb" stroke-width="0.5"/>
  <text x="478" y="716" fill="#111827" font-size="9" font-weight="bold">playerID (FK)</text>
  <line x1="477" y1="719" x2="646" y2="719" stroke="#e5e7eb" stroke-width="0.5"/>
  <text x="478" y="730" fill="#111827" font-size="9" font-weight="normal">pointsWon / pointsMax</text>
</svg>